{
	"asset":{
		"generator":"Khronos glTF Blender I/O v3.6.27",
		"version":"2.0"
	},
	"scene":0,
	"scenes":[
		{
			"name":"Scene",
			"nodes":[
				0
			]
		}
	],
	"nodes":[
		{
			"mesh":0,
			"name":"BezierCurve.005",
			"scale":[
				0.018100831657648087,
				0.018100831657648087,
				0.018100831657648087
			]
		}
	],
	"animations":[
		{
			"channels":[
				{
					"sampler":0,
					"target":{
						"node":0,
						"path":"weights"
					}
				}
			],
			"name":"KeyAction",
			"samplers":[
				{
					"input":7,
					"interpolation":"LINEAR",
					"output":8
				}
			]
		}
	],
	"materials":[
		{
			"doubleSided":true,
			"emissiveFactor":[
				1,
				1,
				1
			],
			"emissiveTexture":{
				"index":0
			},
			"name":"Material.003",
			"pbrMetallicRoughness":{
				"baseColorTexture":{
					"index":1
				},
				"metallicFactor":0,
				"roughnessFactor":0.5
			}
		}
	],
	"meshes":[
		{
			"extras":{
				"targetNames":[
					"Key 1"
				]
			},
			"name":"BezierCurve.003",
			"primitives":[
				{
					"attributes":{
						"COLOR_0":0,
						"POSITION":1,
						"NORMAL":2,
						"TEXCOORD_0":3
					},
					"indices":4,
					"material":0,
					"targets":[
						{
							"POSITION":5,
							"NORMAL":6
						}
					]
				}
			],
			"weights":[
				0
			]
		}
	],
	"textures":[
		{
			"sampler":0,
			"source":0
		},
		{
			"sampler":0,
			"source":0
		}
	],
	"images":[
		{
			"mimeType":"image/png",
			"name":"BezierCurve",
			"uri":"BezierCurve.png"
		}
	],
	"accessors":[
		{
			"bufferView":0,
			"componentType":5123,
			"count":52381,
			"normalized":true,
			"type":"VEC4"
		},
		{
			"bufferView":1,
			"componentType":5126,
			"count":52381,
			"max":[
				19.024269104003906,
				72.01204681396484,
				10.226936340332031
			],
			"min":[
				-13.591705322265625,
				-1.4254989624023438,
				-12.73822021484375
			],
			"type":"VEC3"
		},
		{
			"bufferView":2,
			"componentType":5126,
			"count":52381,
			"type":"VEC3"
		},
		{
			"bufferView":3,
			"componentType":5126,
			"count":52381,
			"type":"VEC2"
		},
		{
			"bufferView":4,
			"componentType":5123,
			"count":241818,
			"type":"SCALAR"
		},
		{
			"bufferView":5,
			"componentType":5126,
			"count":52381,
			"max":[
				0.42835044860839844,
				0.7923622131347656,
				0.1190495491027832
			],
			"min":[
				-0.03455162048339844,
				-0.2557182312011719,
				-0.11977076530456543
			],
			"type":"VEC3"
		},
		{
			"bufferView":6,
			"componentType":5126,
			"count":52381,
			"type":"VEC3"
		},
		{
			"bufferView":7,
			"componentType":5126,
			"count":83,
			"max":[
				3.4166666666666665
			],
			"min":[
				0
			],
			"type":"SCALAR"
		},
		{
			"bufferView":8,
			"componentType":5126,
			"count":83,
			"type":"SCALAR"
		}
	],
	"bufferViews":[
		{
			"buffer":0,
			"byteLength":419048,
			"byteOffset":0,
			"target":34962
		},
		{
			"buffer":0,
			"byteLength":628572,
			"byteOffset":419048,
			"target":34962
		},
		{
			"buffer":0,
			"byteLength":628572,
			"byteOffset":1047620,
			"target":34962
		},
		{
			"buffer":0,
			"byteLength":419048,
			"byteOffset":1676192,
			"target":34962
		},
		{
			"buffer":0,
			"byteLength":483636,
			"byteOffset":2095240,
			"target":34963
		},
		{
			"buffer":0,
			"byteLength":628572,
			"byteOffset":2578876,
			"target":34962
		},
		{
			"buffer":0,
			"byteLength":628572,
			"byteOffset":3207448,
			"target":34962
		},
		{
			"buffer":0,
			"byteLength":332,
			"byteOffset":3836020
		},
		{
			"buffer":0,
			"byteLength":332,
			"byteOffset":3836352
		}
	],
	"samplers":[
		{
			"magFilter":9729,
			"minFilter":9987
		}
	],
	"buffers":[
		{
			"byteLength":3836684,
			"uri":"lin.bin"
		}
	]
}
